<?xml version="1.0" standalone="no"?>
<!DOCTYPE svg PUBLIC "-//W3C//DTD SVG 20010904//EN"
 "http://www.w3.org/TR/2001/REC-SVG-20010904/DTD/svg10.dtd">
<svg version="1.0" xmlns="http://www.w3.org/2000/svg"
 width="370.000000pt" height="370.000000pt" viewBox="0 0 370.000000 370.000000"
 preserveAspectRatio="xMidYMid meet">
<metadata>
Created by potrace 1.14, written by Peter Selinger 2001-2017
</metadata>
<g transform="translate(0.000000,370.000000) scale(0.100000,-0.100000)"
fill="#000000" stroke="none">
<path d="M1197 2318 c-2 -7 -80 -209 -172 -448 -92 -239 -170 -441 -172 -447
-4 -10 12 -13 59 -13 l65 0 50 138 49 137 193 0 194 0 51 -135 52 -135 67 -3
c37 -2 67 0 67 3 0 6 -302 750 -352 868 l-20 47 -63 0 c-41 0 -65 -4 -68 -12z
m154 -337 c38 -101 69 -185 69 -187 0 -2 -67 -4 -150 -4 -82 0 -150 4 -150 9
0 5 22 67 49 137 51 136 62 171 82 244 l12 45 10 -30 c5 -16 40 -113 78 -214z"/>
<path d="M2040 1870 l0 -460 60 0 60 0 0 215 0 215 235 0 235 0 0 -215 0 -215
60 0 60 0 0 460 0 461 -57 -3 -58 -3 -3 -187 -2 -188 -235 0 -235 0 -2 188 -3
187 -57 3 -58 3 0 -461z"/>
<path d="M850 1180 l0 -50 1005 0 1005 0 0 50 0 50 -1005 0 -1005 0 0 -50z"/>
</g>
</svg>
